<mxfile host="app.diagrams.net" modified="2021-12-09T18:37:15.278Z" agent="5.0 (Windows)" etag="qmwLA9T4fZvrEjN2AUWL" version="15.9.1" type="github">
  <diagram id="vIxli9DI9CL3hc1L__Mi" name="Page-1">
    <mxGraphModel dx="1574" dy="836" grid="1" gridSize="10" guides="1" tooltips="1" connect="1" arrows="1" fold="1" page="1" pageScale="1" pageWidth="1654" pageHeight="2336" math="0" shadow="0">
      <root>
        <mxCell id="0" />
        <mxCell id="1" parent="0" />
        <mxCell id="NIfGBF_LidaSrqxh-zxE-1" value="Genre" style="whiteSpace=wrap;html=1;align=center;fillColor=#ffe6cc;strokeColor=#d79b00;" parent="1" vertex="1">
          <mxGeometry x="340" y="180" width="130" height="60" as="geometry" />
        </mxCell>
        <mxCell id="NIfGBF_LidaSrqxh-zxE-2" value="Genre ID" style="ellipse;whiteSpace=wrap;html=1;align=center;fillColor=#d5e8d4;strokeColor=#82b366;fontStyle=4" parent="1" vertex="1">
          <mxGeometry x="230" y="60" width="100" height="40" as="geometry" />
        </mxCell>
        <mxCell id="NIfGBF_LidaSrqxh-zxE-3" value="Genre Description" style="ellipse;whiteSpace=wrap;html=1;align=center;fillColor=#d5e8d4;strokeColor=#82b366;" parent="1" vertex="1">
          <mxGeometry x="480" y="60" width="100" height="40" as="geometry" />
        </mxCell>
        <mxCell id="NIfGBF_LidaSrqxh-zxE-6" value="" style="endArrow=classic;html=1;rounded=0;entryX=0.5;entryY=0;entryDx=0;entryDy=0;" parent="1" target="NIfGBF_LidaSrqxh-zxE-1" edge="1">
          <mxGeometry width="50" height="50" relative="1" as="geometry">
            <mxPoint x="405" y="80" as="sourcePoint" />
            <mxPoint x="390" y="100.5" as="targetPoint" />
          </mxGeometry>
        </mxCell>
        <mxCell id="NIfGBF_LidaSrqxh-zxE-7" value="" style="endArrow=none;html=1;rounded=0;" parent="1" edge="1">
          <mxGeometry width="50" height="50" relative="1" as="geometry">
            <mxPoint x="330" y="79.5" as="sourcePoint" />
            <mxPoint x="480" y="79.5" as="targetPoint" />
          </mxGeometry>
        </mxCell>
        <mxCell id="NIfGBF_LidaSrqxh-zxE-9" value="Genre Belongs To" style="shape=associativeEntity;whiteSpace=wrap;html=1;align=center;fillColor=#dae8fc;strokeColor=#6c8ebf;" parent="1" vertex="1">
          <mxGeometry x="640" y="180" width="140" height="60" as="geometry" />
        </mxCell>
        <mxCell id="NIfGBF_LidaSrqxh-zxE-10" value="" style="endArrow=none;html=1;rounded=0;exitX=1;exitY=0.5;exitDx=0;exitDy=0;entryX=0;entryY=0.5;entryDx=0;entryDy=0;" parent="1" source="NIfGBF_LidaSrqxh-zxE-1" target="NIfGBF_LidaSrqxh-zxE-9" edge="1">
          <mxGeometry relative="1" as="geometry">
            <mxPoint x="470" y="239" as="sourcePoint" />
            <mxPoint x="630" y="239" as="targetPoint" />
          </mxGeometry>
        </mxCell>
        <mxCell id="NIfGBF_LidaSrqxh-zxE-11" value="1" style="resizable=0;html=1;align=right;verticalAlign=bottom;" parent="NIfGBF_LidaSrqxh-zxE-10" connectable="0" vertex="1">
          <mxGeometry x="1" relative="1" as="geometry" />
        </mxCell>
        <mxCell id="NIfGBF_LidaSrqxh-zxE-12" value="TV Shows and Movies" style="whiteSpace=wrap;html=1;align=center;fillColor=#ffe6cc;strokeColor=#d79b00;" parent="1" vertex="1">
          <mxGeometry x="920" y="180" width="140" height="60" as="geometry" />
        </mxCell>
        <mxCell id="NIfGBF_LidaSrqxh-zxE-13" value="" style="shape=link;html=1;rounded=0;exitX=1;exitY=0.5;exitDx=0;exitDy=0;entryX=0;entryY=0.5;entryDx=0;entryDy=0;" parent="1" source="NIfGBF_LidaSrqxh-zxE-9" target="NIfGBF_LidaSrqxh-zxE-12" edge="1">
          <mxGeometry relative="1" as="geometry">
            <mxPoint x="810" y="200" as="sourcePoint" />
            <mxPoint x="970" y="200" as="targetPoint" />
          </mxGeometry>
        </mxCell>
        <mxCell id="NIfGBF_LidaSrqxh-zxE-14" value="N" style="resizable=0;html=1;align=right;verticalAlign=bottom;" parent="NIfGBF_LidaSrqxh-zxE-13" connectable="0" vertex="1">
          <mxGeometry x="1" relative="1" as="geometry" />
        </mxCell>
        <mxCell id="en8W7bjXeNqJYoDH670p-1" value="Movie ID" style="ellipse;whiteSpace=wrap;html=1;align=center;fillColor=#d5e8d4;strokeColor=#82b366;fontStyle=4" parent="1" vertex="1">
          <mxGeometry x="1150" y="85" width="100" height="40" as="geometry" />
        </mxCell>
        <mxCell id="en8W7bjXeNqJYoDH670p-2" value="Movie Title" style="ellipse;whiteSpace=wrap;html=1;align=center;fillColor=#d5e8d4;strokeColor=#82b366;" parent="1" vertex="1">
          <mxGeometry x="1150" y="155" width="100" height="40" as="geometry" />
        </mxCell>
        <mxCell id="en8W7bjXeNqJYoDH670p-3" value="Release Date" style="ellipse;whiteSpace=wrap;html=1;align=center;fillColor=#d5e8d4;strokeColor=#82b366;" parent="1" vertex="1">
          <mxGeometry x="1150" y="225" width="100" height="40" as="geometry" />
        </mxCell>
        <mxCell id="en8W7bjXeNqJYoDH670p-4" value="Rating" style="ellipse;whiteSpace=wrap;html=1;align=center;fillColor=#d5e8d4;strokeColor=#82b366;" parent="1" vertex="1">
          <mxGeometry x="1150" y="295" width="100" height="40" as="geometry" />
        </mxCell>
        <mxCell id="en8W7bjXeNqJYoDH670p-5" value="" style="endArrow=none;html=1;rounded=0;entryX=0;entryY=0.5;entryDx=0;entryDy=0;" parent="1" target="en8W7bjXeNqJYoDH670p-1" edge="1">
          <mxGeometry width="50" height="50" relative="1" as="geometry">
            <mxPoint x="1110" y="105" as="sourcePoint" />
            <mxPoint x="1140" y="104.5" as="targetPoint" />
          </mxGeometry>
        </mxCell>
        <mxCell id="en8W7bjXeNqJYoDH670p-6" value="" style="endArrow=none;html=1;rounded=0;entryX=0;entryY=0.5;entryDx=0;entryDy=0;" parent="1" target="en8W7bjXeNqJYoDH670p-2" edge="1">
          <mxGeometry width="50" height="50" relative="1" as="geometry">
            <mxPoint x="1110" y="175" as="sourcePoint" />
            <mxPoint x="1130" y="174.5" as="targetPoint" />
          </mxGeometry>
        </mxCell>
        <mxCell id="en8W7bjXeNqJYoDH670p-7" value="" style="endArrow=none;html=1;rounded=0;entryX=0;entryY=0.5;entryDx=0;entryDy=0;" parent="1" target="en8W7bjXeNqJYoDH670p-3" edge="1">
          <mxGeometry width="50" height="50" relative="1" as="geometry">
            <mxPoint x="1110" y="245" as="sourcePoint" />
            <mxPoint x="1140" y="244.5" as="targetPoint" />
          </mxGeometry>
        </mxCell>
        <mxCell id="en8W7bjXeNqJYoDH670p-8" value="" style="endArrow=none;html=1;rounded=0;entryX=0;entryY=0.5;entryDx=0;entryDy=0;" parent="1" target="en8W7bjXeNqJYoDH670p-4" edge="1">
          <mxGeometry width="50" height="50" relative="1" as="geometry">
            <mxPoint x="1110" y="315" as="sourcePoint" />
            <mxPoint x="1140" y="314.5" as="targetPoint" />
          </mxGeometry>
        </mxCell>
        <mxCell id="en8W7bjXeNqJYoDH670p-9" value="" style="endArrow=none;html=1;rounded=0;" parent="1" edge="1">
          <mxGeometry width="50" height="50" relative="1" as="geometry">
            <mxPoint x="1110" y="315" as="sourcePoint" />
            <mxPoint x="1110" y="105" as="targetPoint" />
          </mxGeometry>
        </mxCell>
        <mxCell id="en8W7bjXeNqJYoDH670p-10" value="" style="endArrow=classic;html=1;rounded=0;entryX=1;entryY=0.5;entryDx=0;entryDy=0;" parent="1" target="NIfGBF_LidaSrqxh-zxE-12" edge="1">
          <mxGeometry width="50" height="50" relative="1" as="geometry">
            <mxPoint x="1110" y="210" as="sourcePoint" />
            <mxPoint x="1070" y="209.5" as="targetPoint" />
          </mxGeometry>
        </mxCell>
        <mxCell id="vVi_NHI8I7VarCt74pUY-2" value="Subscription For" style="shape=associativeEntity;whiteSpace=wrap;html=1;align=center;fillColor=#dae8fc;strokeColor=#6c8ebf;" vertex="1" parent="1">
          <mxGeometry x="920" y="380" width="140" height="60" as="geometry" />
        </mxCell>
        <mxCell id="vVi_NHI8I7VarCt74pUY-3" value="" style="endArrow=none;html=1;rounded=0;exitX=0.5;exitY=0;exitDx=0;exitDy=0;entryX=0.5;entryY=1;entryDx=0;entryDy=0;" edge="1" parent="1" source="vVi_NHI8I7VarCt74pUY-11" target="vVi_NHI8I7VarCt74pUY-2">
          <mxGeometry relative="1" as="geometry">
            <mxPoint x="990" y="560" as="sourcePoint" />
            <mxPoint x="1210" y="490" as="targetPoint" />
          </mxGeometry>
        </mxCell>
        <mxCell id="vVi_NHI8I7VarCt74pUY-4" value="1" style="resizable=0;html=1;align=right;verticalAlign=bottom;" connectable="0" vertex="1" parent="vVi_NHI8I7VarCt74pUY-3">
          <mxGeometry x="1" relative="1" as="geometry">
            <mxPoint y="20" as="offset" />
          </mxGeometry>
        </mxCell>
        <mxCell id="vVi_NHI8I7VarCt74pUY-5" value="" style="shape=link;html=1;rounded=0;exitX=0.5;exitY=0;exitDx=0;exitDy=0;entryX=0.5;entryY=1;entryDx=0;entryDy=0;" edge="1" parent="1" source="vVi_NHI8I7VarCt74pUY-2" target="NIfGBF_LidaSrqxh-zxE-12">
          <mxGeometry relative="1" as="geometry">
            <mxPoint x="980" y="290" as="sourcePoint" />
            <mxPoint x="1140" y="290" as="targetPoint" />
          </mxGeometry>
        </mxCell>
        <mxCell id="vVi_NHI8I7VarCt74pUY-6" value="N" style="resizable=0;html=1;align=right;verticalAlign=bottom;" connectable="0" vertex="1" parent="vVi_NHI8I7VarCt74pUY-5">
          <mxGeometry x="1" relative="1" as="geometry">
            <mxPoint x="-10" y="20" as="offset" />
          </mxGeometry>
        </mxCell>
        <mxCell id="vVi_NHI8I7VarCt74pUY-7" value="Subsctiption Date" style="ellipse;whiteSpace=wrap;html=1;align=center;fillColor=#d5e8d4;strokeColor=#82b366;" vertex="1" parent="1">
          <mxGeometry x="1150" y="470" width="100" height="50" as="geometry" />
        </mxCell>
        <mxCell id="vVi_NHI8I7VarCt74pUY-8" value="Subscription Type" style="ellipse;whiteSpace=wrap;html=1;align=center;fillColor=#d5e8d4;strokeColor=#82b366;" vertex="1" parent="1">
          <mxGeometry x="1150" y="570" width="100" height="40" as="geometry" />
        </mxCell>
        <mxCell id="vVi_NHI8I7VarCt74pUY-9" value="Price" style="ellipse;whiteSpace=wrap;html=1;align=center;fillColor=#d5e8d4;strokeColor=#82b366;" vertex="1" parent="1">
          <mxGeometry x="1150" y="650" width="100" height="40" as="geometry" />
        </mxCell>
        <mxCell id="vVi_NHI8I7VarCt74pUY-10" value="Resolution" style="ellipse;whiteSpace=wrap;html=1;align=center;fillColor=#e1d5e7;strokeColor=#9673a6;" vertex="1" parent="1">
          <mxGeometry x="1330" y="510" width="100" height="40" as="geometry" />
        </mxCell>
        <mxCell id="vVi_NHI8I7VarCt74pUY-11" value="Subscription" style="shape=ext;margin=3;double=1;whiteSpace=wrap;html=1;align=center;fillColor=#fff2cc;strokeColor=#d6b656;" vertex="1" parent="1">
          <mxGeometry x="920" y="560" width="140" height="60" as="geometry" />
        </mxCell>
        <mxCell id="vVi_NHI8I7VarCt74pUY-13" value="Video quality" style="ellipse;whiteSpace=wrap;html=1;align=center;fillColor=#e1d5e7;strokeColor=#9673a6;" vertex="1" parent="1">
          <mxGeometry x="1330" y="570" width="100" height="40" as="geometry" />
        </mxCell>
        <mxCell id="vVi_NHI8I7VarCt74pUY-14" value="Allowed number of devices" style="ellipse;whiteSpace=wrap;html=1;align=center;fillColor=#e1d5e7;strokeColor=#9673a6;" vertex="1" parent="1">
          <mxGeometry x="1330" y="630" width="100" height="40" as="geometry" />
        </mxCell>
        <mxCell id="vVi_NHI8I7VarCt74pUY-15" value="" style="endArrow=none;html=1;rounded=0;entryX=0;entryY=0.5;entryDx=0;entryDy=0;" edge="1" parent="1" target="vVi_NHI8I7VarCt74pUY-10">
          <mxGeometry width="50" height="50" relative="1" as="geometry">
            <mxPoint x="1290" y="530" as="sourcePoint" />
            <mxPoint x="1320" y="540" as="targetPoint" />
          </mxGeometry>
        </mxCell>
        <mxCell id="vVi_NHI8I7VarCt74pUY-16" value="" style="endArrow=none;html=1;rounded=0;" edge="1" parent="1" target="vVi_NHI8I7VarCt74pUY-13">
          <mxGeometry width="50" height="50" relative="1" as="geometry">
            <mxPoint x="1290" y="589.5" as="sourcePoint" />
            <mxPoint x="1330" y="589.5" as="targetPoint" />
          </mxGeometry>
        </mxCell>
        <mxCell id="vVi_NHI8I7VarCt74pUY-17" value="" style="endArrow=none;html=1;rounded=0;entryX=0;entryY=0.5;entryDx=0;entryDy=0;" edge="1" parent="1" target="vVi_NHI8I7VarCt74pUY-14">
          <mxGeometry width="50" height="50" relative="1" as="geometry">
            <mxPoint x="1290" y="650" as="sourcePoint" />
            <mxPoint x="1310" y="640" as="targetPoint" />
          </mxGeometry>
        </mxCell>
        <mxCell id="vVi_NHI8I7VarCt74pUY-18" value="" style="endArrow=none;html=1;rounded=0;" edge="1" parent="1">
          <mxGeometry width="50" height="50" relative="1" as="geometry">
            <mxPoint x="1290" y="650" as="sourcePoint" />
            <mxPoint x="1290" y="530" as="targetPoint" />
          </mxGeometry>
        </mxCell>
        <mxCell id="vVi_NHI8I7VarCt74pUY-19" value="" style="endArrow=classic;html=1;rounded=0;entryX=1;entryY=0.5;entryDx=0;entryDy=0;" edge="1" parent="1" target="vVi_NHI8I7VarCt74pUY-8">
          <mxGeometry width="50" height="50" relative="1" as="geometry">
            <mxPoint x="1290" y="590" as="sourcePoint" />
            <mxPoint x="1240" y="850" as="targetPoint" />
          </mxGeometry>
        </mxCell>
        <mxCell id="vVi_NHI8I7VarCt74pUY-20" value="" style="endArrow=none;html=1;rounded=0;entryX=0;entryY=0.5;entryDx=0;entryDy=0;" edge="1" parent="1" target="vVi_NHI8I7VarCt74pUY-7">
          <mxGeometry width="50" height="50" relative="1" as="geometry">
            <mxPoint x="1100" y="500" as="sourcePoint" />
            <mxPoint x="1140" y="504.5" as="targetPoint" />
          </mxGeometry>
        </mxCell>
        <mxCell id="vVi_NHI8I7VarCt74pUY-22" value="" style="endArrow=none;html=1;rounded=0;entryX=0;entryY=0.5;entryDx=0;entryDy=0;" edge="1" parent="1" target="vVi_NHI8I7VarCt74pUY-8">
          <mxGeometry width="50" height="50" relative="1" as="geometry">
            <mxPoint x="1100" y="590" as="sourcePoint" />
            <mxPoint x="1140" y="590" as="targetPoint" />
          </mxGeometry>
        </mxCell>
        <mxCell id="vVi_NHI8I7VarCt74pUY-23" value="" style="endArrow=none;html=1;rounded=0;entryX=0;entryY=0.5;entryDx=0;entryDy=0;" edge="1" parent="1" target="vVi_NHI8I7VarCt74pUY-9">
          <mxGeometry width="50" height="50" relative="1" as="geometry">
            <mxPoint x="1100" y="670" as="sourcePoint" />
            <mxPoint x="1140" y="670.5" as="targetPoint" />
          </mxGeometry>
        </mxCell>
        <mxCell id="vVi_NHI8I7VarCt74pUY-24" value="" style="endArrow=none;html=1;rounded=0;" edge="1" parent="1">
          <mxGeometry width="50" height="50" relative="1" as="geometry">
            <mxPoint x="1100" y="500" as="sourcePoint" />
            <mxPoint x="1100" y="670" as="targetPoint" />
          </mxGeometry>
        </mxCell>
        <mxCell id="vVi_NHI8I7VarCt74pUY-25" value="" style="endArrow=classic;html=1;rounded=0;" edge="1" parent="1">
          <mxGeometry width="50" height="50" relative="1" as="geometry">
            <mxPoint x="1100" y="590" as="sourcePoint" />
            <mxPoint x="1060" y="590" as="targetPoint" />
          </mxGeometry>
        </mxCell>
        <mxCell id="vVi_NHI8I7VarCt74pUY-26" value="Customer User Account" style="whiteSpace=wrap;html=1;align=center;fillColor=#ffe6cc;strokeColor=#d79b00;" vertex="1" parent="1">
          <mxGeometry x="335" y="560" width="145" height="60" as="geometry" />
        </mxCell>
        <mxCell id="vVi_NHI8I7VarCt74pUY-27" value="Account has Subscription" style="shape=associativeEntity;whiteSpace=wrap;html=1;align=center;fillColor=#dae8fc;strokeColor=#6c8ebf;" vertex="1" parent="1">
          <mxGeometry x="630" y="560" width="140" height="60" as="geometry" />
        </mxCell>
        <mxCell id="vVi_NHI8I7VarCt74pUY-28" value="" style="endArrow=none;html=1;rounded=0;exitX=1;exitY=0.5;exitDx=0;exitDy=0;entryX=0;entryY=0.5;entryDx=0;entryDy=0;" edge="1" parent="1" source="vVi_NHI8I7VarCt74pUY-26" target="vVi_NHI8I7VarCt74pUY-27">
          <mxGeometry relative="1" as="geometry">
            <mxPoint x="480" y="590" as="sourcePoint" />
            <mxPoint x="650" y="590" as="targetPoint" />
          </mxGeometry>
        </mxCell>
        <mxCell id="vVi_NHI8I7VarCt74pUY-29" value="1" style="resizable=0;html=1;align=right;verticalAlign=bottom;" connectable="0" vertex="1" parent="vVi_NHI8I7VarCt74pUY-28">
          <mxGeometry x="1" relative="1" as="geometry" />
        </mxCell>
        <mxCell id="vVi_NHI8I7VarCt74pUY-30" value="" style="endArrow=none;html=1;rounded=0;exitX=1;exitY=0.5;exitDx=0;exitDy=0;" edge="1" parent="1" source="vVi_NHI8I7VarCt74pUY-27" target="vVi_NHI8I7VarCt74pUY-11">
          <mxGeometry relative="1" as="geometry">
            <mxPoint x="780" y="589.5" as="sourcePoint" />
            <mxPoint x="920" y="590" as="targetPoint" />
          </mxGeometry>
        </mxCell>
        <mxCell id="vVi_NHI8I7VarCt74pUY-31" value="1" style="resizable=0;html=1;align=right;verticalAlign=bottom;" connectable="0" vertex="1" parent="vVi_NHI8I7VarCt74pUY-30">
          <mxGeometry x="1" relative="1" as="geometry" />
        </mxCell>
        <mxCell id="vVi_NHI8I7VarCt74pUY-32" value="Email" style="ellipse;whiteSpace=wrap;html=1;align=center;fillColor=#d5e8d4;strokeColor=#82b366;" vertex="1" parent="1">
          <mxGeometry x="210" y="940" width="100" height="40" as="geometry" />
        </mxCell>
        <mxCell id="vVi_NHI8I7VarCt74pUY-33" value="First Name" style="ellipse;whiteSpace=wrap;html=1;align=center;fillColor=#d5e8d4;strokeColor=#82b366;" vertex="1" parent="1">
          <mxGeometry x="210" y="780" width="100" height="40" as="geometry" />
        </mxCell>
        <mxCell id="vVi_NHI8I7VarCt74pUY-34" value="Last Name" style="ellipse;whiteSpace=wrap;html=1;align=center;fillColor=#d5e8d4;strokeColor=#82b366;" vertex="1" parent="1">
          <mxGeometry x="210" y="860" width="100" height="40" as="geometry" />
        </mxCell>
        <mxCell id="vVi_NHI8I7VarCt74pUY-35" value="Customer ID" style="ellipse;whiteSpace=wrap;html=1;align=center;fontStyle=4;fillColor=#d5e8d4;strokeColor=#82b366;" vertex="1" parent="1">
          <mxGeometry x="210" y="700" width="100" height="40" as="geometry" />
        </mxCell>
        <mxCell id="vVi_NHI8I7VarCt74pUY-36" value="Address" style="ellipse;whiteSpace=wrap;html=1;align=center;fillColor=#d5e8d4;strokeColor=#82b366;" vertex="1" parent="1">
          <mxGeometry x="210" y="1020" width="100" height="40" as="geometry" />
        </mxCell>
        <mxCell id="vVi_NHI8I7VarCt74pUY-37" value="Phone Number" style="ellipse;whiteSpace=wrap;html=1;align=center;fillColor=#d5e8d4;strokeColor=#82b366;" vertex="1" parent="1">
          <mxGeometry x="210" y="1100" width="100" height="40" as="geometry" />
        </mxCell>
        <mxCell id="vVi_NHI8I7VarCt74pUY-39" value="Password" style="ellipse;whiteSpace=wrap;html=1;align=center;fillColor=#d5e8d4;strokeColor=#82b366;" vertex="1" parent="1">
          <mxGeometry x="210" y="1180" width="100" height="40" as="geometry" />
        </mxCell>
        <mxCell id="vVi_NHI8I7VarCt74pUY-40" value="" style="endArrow=none;html=1;rounded=0;" edge="1" parent="1">
          <mxGeometry width="50" height="50" relative="1" as="geometry">
            <mxPoint x="310" y="719.5" as="sourcePoint" />
            <mxPoint x="360" y="719.5" as="targetPoint" />
          </mxGeometry>
        </mxCell>
        <mxCell id="vVi_NHI8I7VarCt74pUY-41" value="" style="endArrow=none;html=1;rounded=0;" edge="1" parent="1">
          <mxGeometry width="50" height="50" relative="1" as="geometry">
            <mxPoint x="310" y="799.5" as="sourcePoint" />
            <mxPoint x="360" y="799.5" as="targetPoint" />
          </mxGeometry>
        </mxCell>
        <mxCell id="vVi_NHI8I7VarCt74pUY-42" value="" style="endArrow=none;html=1;rounded=0;" edge="1" parent="1">
          <mxGeometry width="50" height="50" relative="1" as="geometry">
            <mxPoint x="310" y="879.5" as="sourcePoint" />
            <mxPoint x="360" y="879.5" as="targetPoint" />
          </mxGeometry>
        </mxCell>
        <mxCell id="vVi_NHI8I7VarCt74pUY-43" value="" style="endArrow=none;html=1;rounded=0;" edge="1" parent="1">
          <mxGeometry width="50" height="50" relative="1" as="geometry">
            <mxPoint x="310" y="959.5" as="sourcePoint" />
            <mxPoint x="360" y="959.5" as="targetPoint" />
          </mxGeometry>
        </mxCell>
        <mxCell id="vVi_NHI8I7VarCt74pUY-44" value="" style="endArrow=none;html=1;rounded=0;" edge="1" parent="1">
          <mxGeometry width="50" height="50" relative="1" as="geometry">
            <mxPoint x="310" y="1039.5" as="sourcePoint" />
            <mxPoint x="360" y="1039.5" as="targetPoint" />
          </mxGeometry>
        </mxCell>
        <mxCell id="vVi_NHI8I7VarCt74pUY-45" value="" style="endArrow=none;html=1;rounded=0;" edge="1" parent="1">
          <mxGeometry width="50" height="50" relative="1" as="geometry">
            <mxPoint x="310" y="1119.5" as="sourcePoint" />
            <mxPoint x="360" y="1119.5" as="targetPoint" />
          </mxGeometry>
        </mxCell>
        <mxCell id="vVi_NHI8I7VarCt74pUY-46" value="" style="endArrow=none;html=1;rounded=0;" edge="1" parent="1">
          <mxGeometry width="50" height="50" relative="1" as="geometry">
            <mxPoint x="310" y="1199.5" as="sourcePoint" />
            <mxPoint x="360" y="1199.5" as="targetPoint" />
          </mxGeometry>
        </mxCell>
        <mxCell id="vVi_NHI8I7VarCt74pUY-48" value="" style="endArrow=none;html=1;rounded=0;" edge="1" parent="1">
          <mxGeometry width="50" height="50" relative="1" as="geometry">
            <mxPoint x="360" y="720" as="sourcePoint" />
            <mxPoint x="360" y="1360" as="targetPoint" />
          </mxGeometry>
        </mxCell>
        <mxCell id="vVi_NHI8I7VarCt74pUY-49" value="" style="endArrow=none;html=1;rounded=0;" edge="1" parent="1">
          <mxGeometry width="50" height="50" relative="1" as="geometry">
            <mxPoint x="360" y="1019" as="sourcePoint" />
            <mxPoint x="410" y="1019" as="targetPoint" />
          </mxGeometry>
        </mxCell>
        <mxCell id="vVi_NHI8I7VarCt74pUY-50" value="" style="endArrow=classic;html=1;rounded=0;entryX=0.5;entryY=1;entryDx=0;entryDy=0;" edge="1" parent="1" target="vVi_NHI8I7VarCt74pUY-26">
          <mxGeometry width="50" height="50" relative="1" as="geometry">
            <mxPoint x="410" y="1020" as="sourcePoint" />
            <mxPoint x="530" y="830" as="targetPoint" />
          </mxGeometry>
        </mxCell>
        <mxCell id="vVi_NHI8I7VarCt74pUY-51" value="Payment" style="whiteSpace=wrap;html=1;align=center;fillColor=#ffe6cc;strokeColor=#d79b00;" vertex="1" parent="1">
          <mxGeometry x="342.5" y="360" width="135" height="60" as="geometry" />
        </mxCell>
        <mxCell id="vVi_NHI8I7VarCt74pUY-52" value="Payment Method" style="ellipse;whiteSpace=wrap;html=1;align=center;fillColor=#d5e8d4;strokeColor=#82b366;" vertex="1" parent="1">
          <mxGeometry x="110" y="335" width="100" height="40" as="geometry" />
        </mxCell>
        <mxCell id="vVi_NHI8I7VarCt74pUY-53" value="Payment ID" style="ellipse;whiteSpace=wrap;html=1;align=center;fontStyle=4;fillColor=#d5e8d4;strokeColor=#82b366;" vertex="1" parent="1">
          <mxGeometry x="110" y="265" width="100" height="40" as="geometry" />
        </mxCell>
        <mxCell id="vVi_NHI8I7VarCt74pUY-54" value="Payment Date" style="ellipse;whiteSpace=wrap;html=1;align=center;fillColor=#d5e8d4;strokeColor=#82b366;" vertex="1" parent="1">
          <mxGeometry x="110" y="410" width="100" height="40" as="geometry" />
        </mxCell>
        <mxCell id="vVi_NHI8I7VarCt74pUY-55" value="Amount Due" style="ellipse;whiteSpace=wrap;html=1;align=center;fillColor=#d5e8d4;strokeColor=#82b366;" vertex="1" parent="1">
          <mxGeometry x="110" y="490" width="100" height="40" as="geometry" />
        </mxCell>
        <mxCell id="vVi_NHI8I7VarCt74pUY-56" value="" style="endArrow=none;html=1;rounded=0;" edge="1" parent="1">
          <mxGeometry width="50" height="50" relative="1" as="geometry">
            <mxPoint x="210" y="510" as="sourcePoint" />
            <mxPoint x="260" y="510" as="targetPoint" />
          </mxGeometry>
        </mxCell>
        <mxCell id="vVi_NHI8I7VarCt74pUY-57" value="" style="endArrow=none;html=1;rounded=0;" edge="1" parent="1">
          <mxGeometry width="50" height="50" relative="1" as="geometry">
            <mxPoint x="210" y="429.57" as="sourcePoint" />
            <mxPoint x="260" y="429.57" as="targetPoint" />
          </mxGeometry>
        </mxCell>
        <mxCell id="vVi_NHI8I7VarCt74pUY-58" value="" style="endArrow=none;html=1;rounded=0;" edge="1" parent="1">
          <mxGeometry width="50" height="50" relative="1" as="geometry">
            <mxPoint x="210" y="354.57" as="sourcePoint" />
            <mxPoint x="260" y="354.57" as="targetPoint" />
          </mxGeometry>
        </mxCell>
        <mxCell id="vVi_NHI8I7VarCt74pUY-59" value="" style="endArrow=none;html=1;rounded=0;" edge="1" parent="1">
          <mxGeometry width="50" height="50" relative="1" as="geometry">
            <mxPoint x="210" y="284.29" as="sourcePoint" />
            <mxPoint x="260" y="284.29" as="targetPoint" />
          </mxGeometry>
        </mxCell>
        <mxCell id="vVi_NHI8I7VarCt74pUY-60" value="" style="endArrow=none;html=1;rounded=0;" edge="1" parent="1">
          <mxGeometry width="50" height="50" relative="1" as="geometry">
            <mxPoint x="260" y="280" as="sourcePoint" />
            <mxPoint x="260" y="514" as="targetPoint" />
          </mxGeometry>
        </mxCell>
        <mxCell id="vVi_NHI8I7VarCt74pUY-61" value="" style="endArrow=classic;html=1;rounded=0;entryX=0;entryY=0.5;entryDx=0;entryDy=0;" edge="1" parent="1" target="vVi_NHI8I7VarCt74pUY-51">
          <mxGeometry width="50" height="50" relative="1" as="geometry">
            <mxPoint x="260" y="390" as="sourcePoint" />
            <mxPoint x="310" y="370" as="targetPoint" />
          </mxGeometry>
        </mxCell>
        <mxCell id="vVi_NHI8I7VarCt74pUY-62" value="Customer makes payment" style="shape=associativeEntity;whiteSpace=wrap;html=1;align=center;fillColor=#dae8fc;strokeColor=#6c8ebf;" vertex="1" parent="1">
          <mxGeometry x="340" y="450" width="140" height="75" as="geometry" />
        </mxCell>
        <mxCell id="vVi_NHI8I7VarCt74pUY-64" value="" style="endArrow=none;html=1;rounded=0;exitX=0.5;exitY=0;exitDx=0;exitDy=0;entryX=0.5;entryY=1;entryDx=0;entryDy=0;" edge="1" parent="1" source="vVi_NHI8I7VarCt74pUY-26" target="vVi_NHI8I7VarCt74pUY-62">
          <mxGeometry relative="1" as="geometry">
            <mxPoint x="540" y="520" as="sourcePoint" />
            <mxPoint x="700" y="520" as="targetPoint" />
          </mxGeometry>
        </mxCell>
        <mxCell id="vVi_NHI8I7VarCt74pUY-65" value="1" style="resizable=0;html=1;align=right;verticalAlign=bottom;" connectable="0" vertex="1" parent="vVi_NHI8I7VarCt74pUY-64">
          <mxGeometry x="1" relative="1" as="geometry">
            <mxPoint x="10" y="15" as="offset" />
          </mxGeometry>
        </mxCell>
        <mxCell id="vVi_NHI8I7VarCt74pUY-66" value="" style="endArrow=none;html=1;rounded=0;exitX=0.5;exitY=0;exitDx=0;exitDy=0;entryX=0.5;entryY=1;entryDx=0;entryDy=0;" edge="1" parent="1" source="vVi_NHI8I7VarCt74pUY-62" target="vVi_NHI8I7VarCt74pUY-51">
          <mxGeometry relative="1" as="geometry">
            <mxPoint x="570" y="400" as="sourcePoint" />
            <mxPoint x="730" y="400" as="targetPoint" />
          </mxGeometry>
        </mxCell>
        <mxCell id="vVi_NHI8I7VarCt74pUY-67" value="1" style="resizable=0;html=1;align=right;verticalAlign=bottom;" connectable="0" vertex="1" parent="vVi_NHI8I7VarCt74pUY-66">
          <mxGeometry x="1" relative="1" as="geometry">
            <mxPoint x="10" y="20" as="offset" />
          </mxGeometry>
        </mxCell>
        <mxCell id="vVi_NHI8I7VarCt74pUY-68" value="Subscription Has Payment" style="shape=associativeEntity;whiteSpace=wrap;html=1;align=center;fillColor=#dae8fc;strokeColor=#6c8ebf;" vertex="1" parent="1">
          <mxGeometry x="650" y="420" width="140" height="70" as="geometry" />
        </mxCell>
        <mxCell id="vVi_NHI8I7VarCt74pUY-69" value="" style="endArrow=none;html=1;rounded=0;exitX=0;exitY=0;exitDx=0;exitDy=0;entryX=1;entryY=1;entryDx=0;entryDy=0;" edge="1" parent="1" source="vVi_NHI8I7VarCt74pUY-11" target="vVi_NHI8I7VarCt74pUY-68">
          <mxGeometry relative="1" as="geometry">
            <mxPoint x="810" y="480" as="sourcePoint" />
            <mxPoint x="970" y="480" as="targetPoint" />
          </mxGeometry>
        </mxCell>
        <mxCell id="vVi_NHI8I7VarCt74pUY-70" value="1" style="resizable=0;html=1;align=right;verticalAlign=bottom;" connectable="0" vertex="1" parent="vVi_NHI8I7VarCt74pUY-69">
          <mxGeometry x="1" relative="1" as="geometry">
            <mxPoint x="10" as="offset" />
          </mxGeometry>
        </mxCell>
        <mxCell id="vVi_NHI8I7VarCt74pUY-71" value="" style="endArrow=none;html=1;rounded=0;exitX=0;exitY=0.5;exitDx=0;exitDy=0;entryX=1;entryY=0.5;entryDx=0;entryDy=0;" edge="1" parent="1" source="vVi_NHI8I7VarCt74pUY-68" target="vVi_NHI8I7VarCt74pUY-51">
          <mxGeometry relative="1" as="geometry">
            <mxPoint x="560" y="310" as="sourcePoint" />
            <mxPoint x="720" y="310" as="targetPoint" />
          </mxGeometry>
        </mxCell>
        <mxCell id="vVi_NHI8I7VarCt74pUY-72" value="1" style="resizable=0;html=1;align=right;verticalAlign=bottom;" connectable="0" vertex="1" parent="vVi_NHI8I7VarCt74pUY-71">
          <mxGeometry x="1" relative="1" as="geometry">
            <mxPoint x="12" as="offset" />
          </mxGeometry>
        </mxCell>
        <mxCell id="vVi_NHI8I7VarCt74pUY-73" value="Collection" style="whiteSpace=wrap;html=1;align=center;fillColor=#ffe6cc;strokeColor=#d79b00;" vertex="1" parent="1">
          <mxGeometry x="1340" y="25" width="140" height="50" as="geometry" />
        </mxCell>
        <mxCell id="vVi_NHI8I7VarCt74pUY-74" value="Collection Name" style="ellipse;whiteSpace=wrap;html=1;align=center;fillColor=#d5e8d4;strokeColor=#82b366;" vertex="1" parent="1">
          <mxGeometry x="1540" y="85" width="100" height="40" as="geometry" />
        </mxCell>
        <mxCell id="vVi_NHI8I7VarCt74pUY-75" value="Collection ID" style="ellipse;whiteSpace=wrap;html=1;align=center;fontStyle=4;fillColor=#d5e8d4;strokeColor=#82b366;" vertex="1" parent="1">
          <mxGeometry x="1550" y="15" width="100" height="40" as="geometry" />
        </mxCell>
        <mxCell id="vVi_NHI8I7VarCt74pUY-76" value="&lt;div&gt;Shows And Movie&lt;/div&gt;&lt;div&gt;&lt;br&gt;&lt;/div&gt;" style="ellipse;whiteSpace=wrap;html=1;align=center;fillColor=#d5e8d4;strokeColor=#82b366;" vertex="1" parent="1">
          <mxGeometry x="1500" y="160" width="110" height="50" as="geometry" />
        </mxCell>
        <mxCell id="vVi_NHI8I7VarCt74pUY-77" value="" style="endArrow=none;html=1;rounded=0;entryX=0;entryY=0.5;entryDx=0;entryDy=0;exitX=1;exitY=0.5;exitDx=0;exitDy=0;" edge="1" parent="1" source="vVi_NHI8I7VarCt74pUY-80" target="vVi_NHI8I7VarCt74pUY-73">
          <mxGeometry relative="1" as="geometry">
            <mxPoint x="1180" y="20" as="sourcePoint" />
            <mxPoint x="1150" y="30" as="targetPoint" />
          </mxGeometry>
        </mxCell>
        <mxCell id="vVi_NHI8I7VarCt74pUY-78" value="M" style="resizable=0;html=1;align=left;verticalAlign=bottom;" connectable="0" vertex="1" parent="vVi_NHI8I7VarCt74pUY-77">
          <mxGeometry x="-1" relative="1" as="geometry" />
        </mxCell>
        <mxCell id="vVi_NHI8I7VarCt74pUY-79" value="N" style="resizable=0;html=1;align=right;verticalAlign=bottom;" connectable="0" vertex="1" parent="vVi_NHI8I7VarCt74pUY-77">
          <mxGeometry x="1" relative="1" as="geometry" />
        </mxCell>
        <mxCell id="vVi_NHI8I7VarCt74pUY-80" value="Has" style="shape=rhombus;perimeter=rhombusPerimeter;whiteSpace=wrap;html=1;align=center;fillColor=#f8cecc;strokeColor=#b85450;" vertex="1" parent="1">
          <mxGeometry x="990" y="15" width="120" height="60" as="geometry" />
        </mxCell>
        <mxCell id="vVi_NHI8I7VarCt74pUY-81" value="" style="endArrow=none;html=1;rounded=0;exitX=0.5;exitY=0;exitDx=0;exitDy=0;entryX=0.5;entryY=1;entryDx=0;entryDy=0;" edge="1" parent="1" source="NIfGBF_LidaSrqxh-zxE-12" target="vVi_NHI8I7VarCt74pUY-80">
          <mxGeometry relative="1" as="geometry">
            <mxPoint x="840" y="90" as="sourcePoint" />
            <mxPoint x="1000" y="90" as="targetPoint" />
          </mxGeometry>
        </mxCell>
        <mxCell id="vVi_NHI8I7VarCt74pUY-82" value="M" style="resizable=0;html=1;align=left;verticalAlign=bottom;" connectable="0" vertex="1" parent="vVi_NHI8I7VarCt74pUY-81">
          <mxGeometry x="-1" relative="1" as="geometry">
            <mxPoint x="10" as="offset" />
          </mxGeometry>
        </mxCell>
        <mxCell id="vVi_NHI8I7VarCt74pUY-83" value="N" style="resizable=0;html=1;align=right;verticalAlign=bottom;" connectable="0" vertex="1" parent="vVi_NHI8I7VarCt74pUY-81">
          <mxGeometry x="1" relative="1" as="geometry">
            <mxPoint x="-10" y="15" as="offset" />
          </mxGeometry>
        </mxCell>
        <mxCell id="vVi_NHI8I7VarCt74pUY-84" value="" style="endArrow=none;html=1;rounded=0;" edge="1" parent="1">
          <mxGeometry width="50" height="50" relative="1" as="geometry">
            <mxPoint x="1480" y="180" as="sourcePoint" />
            <mxPoint x="1530" y="20" as="targetPoint" />
          </mxGeometry>
        </mxCell>
        <mxCell id="vVi_NHI8I7VarCt74pUY-85" value="" style="endArrow=classic;html=1;rounded=0;entryX=1;entryY=0.5;entryDx=0;entryDy=0;" edge="1" parent="1" target="vVi_NHI8I7VarCt74pUY-73">
          <mxGeometry width="50" height="50" relative="1" as="geometry">
            <mxPoint x="1510" y="90" as="sourcePoint" />
            <mxPoint x="1470" y="230" as="targetPoint" />
          </mxGeometry>
        </mxCell>
        <mxCell id="vVi_NHI8I7VarCt74pUY-86" value="" style="endArrow=none;html=1;rounded=0;entryX=0;entryY=0.5;entryDx=0;entryDy=0;" edge="1" parent="1" target="vVi_NHI8I7VarCt74pUY-75">
          <mxGeometry width="50" height="50" relative="1" as="geometry">
            <mxPoint x="1530" y="20" as="sourcePoint" />
            <mxPoint x="1470" y="240" as="targetPoint" />
          </mxGeometry>
        </mxCell>
        <mxCell id="vVi_NHI8I7VarCt74pUY-87" value="" style="endArrow=none;html=1;rounded=0;entryX=0;entryY=0.5;entryDx=0;entryDy=0;" edge="1" parent="1" target="vVi_NHI8I7VarCt74pUY-74">
          <mxGeometry width="50" height="50" relative="1" as="geometry">
            <mxPoint x="1510" y="90" as="sourcePoint" />
            <mxPoint x="1570" y="250" as="targetPoint" />
          </mxGeometry>
        </mxCell>
        <mxCell id="vVi_NHI8I7VarCt74pUY-88" value="" style="endArrow=none;html=1;rounded=0;entryX=0;entryY=0.5;entryDx=0;entryDy=0;" edge="1" parent="1" target="vVi_NHI8I7VarCt74pUY-76">
          <mxGeometry width="50" height="50" relative="1" as="geometry">
            <mxPoint x="1480" y="180" as="sourcePoint" />
            <mxPoint x="1400" y="290" as="targetPoint" />
          </mxGeometry>
        </mxCell>
        <mxCell id="vVi_NHI8I7VarCt74pUY-89" value="Created In" style="ellipse;whiteSpace=wrap;html=1;align=center;fillColor=#d5e8d4;strokeColor=#82b366;" vertex="1" parent="1">
          <mxGeometry x="210" y="1260" width="100" height="40" as="geometry" />
        </mxCell>
        <mxCell id="vVi_NHI8I7VarCt74pUY-90" value="Last Sign On" style="ellipse;whiteSpace=wrap;html=1;align=center;fillColor=#d5e8d4;strokeColor=#82b366;" vertex="1" parent="1">
          <mxGeometry x="210" y="1340" width="100" height="40" as="geometry" />
        </mxCell>
        <mxCell id="vVi_NHI8I7VarCt74pUY-91" value="Country" style="ellipse;whiteSpace=wrap;html=1;align=center;fillColor=#e1d5e7;strokeColor=#9673a6;" vertex="1" parent="1">
          <mxGeometry y="980" width="100" height="40" as="geometry" />
        </mxCell>
        <mxCell id="vVi_NHI8I7VarCt74pUY-92" value="" style="endArrow=none;html=1;rounded=0;" edge="1" parent="1">
          <mxGeometry width="50" height="50" relative="1" as="geometry">
            <mxPoint x="100" y="1000" as="sourcePoint" />
            <mxPoint x="150" y="1000" as="targetPoint" />
          </mxGeometry>
        </mxCell>
        <mxCell id="vVi_NHI8I7VarCt74pUY-93" value="" style="endArrow=none;html=1;rounded=0;" edge="1" parent="1">
          <mxGeometry width="50" height="50" relative="1" as="geometry">
            <mxPoint x="310" y="1279.29" as="sourcePoint" />
            <mxPoint x="360" y="1279.29" as="targetPoint" />
          </mxGeometry>
        </mxCell>
        <mxCell id="vVi_NHI8I7VarCt74pUY-94" value="" style="endArrow=none;html=1;rounded=0;" edge="1" parent="1">
          <mxGeometry width="50" height="50" relative="1" as="geometry">
            <mxPoint x="310" y="1359.29" as="sourcePoint" />
            <mxPoint x="360" y="1359.29" as="targetPoint" />
          </mxGeometry>
        </mxCell>
        <mxCell id="vVi_NHI8I7VarCt74pUY-95" value="Street" style="ellipse;whiteSpace=wrap;html=1;align=center;fillColor=#e1d5e7;strokeColor=#9673a6;" vertex="1" parent="1">
          <mxGeometry y="1120" width="100" height="40" as="geometry" />
        </mxCell>
        <mxCell id="vVi_NHI8I7VarCt74pUY-96" value="City" style="ellipse;whiteSpace=wrap;html=1;align=center;fillColor=#e1d5e7;strokeColor=#9673a6;" vertex="1" parent="1">
          <mxGeometry y="1050" width="100" height="40" as="geometry" />
        </mxCell>
        <mxCell id="vVi_NHI8I7VarCt74pUY-97" value="" style="endArrow=none;html=1;rounded=0;" edge="1" parent="1">
          <mxGeometry width="50" height="50" relative="1" as="geometry">
            <mxPoint x="100" y="1140" as="sourcePoint" />
            <mxPoint x="150" y="1140" as="targetPoint" />
          </mxGeometry>
        </mxCell>
        <mxCell id="vVi_NHI8I7VarCt74pUY-98" value="" style="endArrow=none;html=1;rounded=0;" edge="1" parent="1">
          <mxGeometry width="50" height="50" relative="1" as="geometry">
            <mxPoint x="100" y="1069.9999999999998" as="sourcePoint" />
            <mxPoint x="150" y="1069.9999999999998" as="targetPoint" />
          </mxGeometry>
        </mxCell>
        <mxCell id="vVi_NHI8I7VarCt74pUY-99" value="" style="endArrow=none;html=1;rounded=0;" edge="1" parent="1">
          <mxGeometry width="50" height="50" relative="1" as="geometry">
            <mxPoint x="150" y="1140" as="sourcePoint" />
            <mxPoint x="150" y="1000" as="targetPoint" />
          </mxGeometry>
        </mxCell>
        <mxCell id="vVi_NHI8I7VarCt74pUY-100" value="" style="endArrow=classic;html=1;rounded=0;entryX=0;entryY=0.5;entryDx=0;entryDy=0;" edge="1" parent="1" target="vVi_NHI8I7VarCt74pUY-36">
          <mxGeometry width="50" height="50" relative="1" as="geometry">
            <mxPoint x="150" y="1070" as="sourcePoint" />
            <mxPoint x="120" y="1250" as="targetPoint" />
          </mxGeometry>
        </mxCell>
      </root>
    </mxGraphModel>
  </diagram>
</mxfile>
